<mxfile host="app.diagrams.net" modified="2024-05-03T03:58:21.571Z" agent="Mozilla/5.0 (Macintosh; Intel Mac OS X 10_15_7) AppleWebKit/537.36 (KHTML, like Gecko) Chrome/124.0.0.0 Safari/537.36" etag="QcZDbNE1xWDWRDMg3ud2" version="23.1.7" type="github">
  <diagram name="Page-1" id="_4paJrddtP0GWQHHKy1v">
    <mxGraphModel dx="1562" dy="785" grid="1" gridSize="10" guides="1" tooltips="1" connect="1" arrows="1" fold="1" page="1" pageScale="1" pageWidth="827" pageHeight="1169" math="0" shadow="0">
      <root>
        <mxCell id="0" />
        <mxCell id="1" parent="0" />
        <mxCell id="S1IWdxKnEXTp7zNw3UAF-71" style="edgeStyle=orthogonalEdgeStyle;rounded=0;orthogonalLoop=1;jettySize=auto;html=1;" edge="1" parent="1" source="S1IWdxKnEXTp7zNw3UAF-1" target="S1IWdxKnEXTp7zNw3UAF-2">
          <mxGeometry relative="1" as="geometry" />
        </mxCell>
        <mxCell id="S1IWdxKnEXTp7zNw3UAF-1" value="" style="sketch=0;points=[[0,0,0],[0.25,0,0],[0.5,0,0],[0.75,0,0],[1,0,0],[0,1,0],[0.25,1,0],[0.5,1,0],[0.75,1,0],[1,1,0],[0,0.25,0],[0,0.5,0],[0,0.75,0],[1,0.25,0],[1,0.5,0],[1,0.75,0]];outlineConnect=0;fontColor=#232F3E;fillColor=#E7157B;strokeColor=#ffffff;dashed=0;verticalLabelPosition=bottom;verticalAlign=top;align=center;html=1;fontSize=12;fontStyle=0;aspect=fixed;shape=mxgraph.aws4.resourceIcon;resIcon=mxgraph.aws4.eventbridge;" vertex="1" parent="1">
          <mxGeometry x="387" y="190" width="57" height="57" as="geometry" />
        </mxCell>
        <mxCell id="S1IWdxKnEXTp7zNw3UAF-72" style="edgeStyle=orthogonalEdgeStyle;rounded=0;orthogonalLoop=1;jettySize=auto;html=1;" edge="1" parent="1" source="S1IWdxKnEXTp7zNw3UAF-2" target="S1IWdxKnEXTp7zNw3UAF-53">
          <mxGeometry relative="1" as="geometry" />
        </mxCell>
        <mxCell id="S1IWdxKnEXTp7zNw3UAF-2" value="" style="sketch=0;points=[[0,0,0],[0.25,0,0],[0.5,0,0],[0.75,0,0],[1,0,0],[0,1,0],[0.25,1,0],[0.5,1,0],[0.75,1,0],[1,1,0],[0,0.25,0],[0,0.5,0],[0,0.75,0],[1,0.25,0],[1,0.5,0],[1,0.75,0]];outlineConnect=0;fontColor=#232F3E;fillColor=#ED7100;strokeColor=#ffffff;dashed=0;verticalLabelPosition=bottom;verticalAlign=top;align=center;html=1;fontSize=12;fontStyle=0;aspect=fixed;shape=mxgraph.aws4.resourceIcon;resIcon=mxgraph.aws4.lambda;" vertex="1" parent="1">
          <mxGeometry x="387" y="290" width="57" height="57" as="geometry" />
        </mxCell>
        <mxCell id="S1IWdxKnEXTp7zNw3UAF-3" value="" style="sketch=0;points=[[0,0,0],[0.25,0,0],[0.5,0,0],[0.75,0,0],[1,0,0],[0,1,0],[0.25,1,0],[0.5,1,0],[0.75,1,0],[1,1,0],[0,0.25,0],[0,0.5,0],[0,0.75,0],[1,0.25,0],[1,0.5,0],[1,0.75,0]];outlineConnect=0;fontColor=#232F3E;fillColor=#ED7100;strokeColor=#ffffff;dashed=0;verticalLabelPosition=bottom;verticalAlign=top;align=center;html=1;fontSize=12;fontStyle=0;aspect=fixed;shape=mxgraph.aws4.resourceIcon;resIcon=mxgraph.aws4.ec2;" vertex="1" parent="1">
          <mxGeometry x="210.5" y="430" width="61" height="61" as="geometry" />
        </mxCell>
        <mxCell id="S1IWdxKnEXTp7zNw3UAF-10" value="" style="endArrow=none;html=1;rounded=0;" edge="1" parent="1">
          <mxGeometry width="50" height="50" relative="1" as="geometry">
            <mxPoint x="234.5" y="390" as="sourcePoint" />
            <mxPoint x="600.5" y="390" as="targetPoint" />
          </mxGeometry>
        </mxCell>
        <mxCell id="S1IWdxKnEXTp7zNw3UAF-14" value="" style="endArrow=classic;html=1;rounded=0;" edge="1" parent="1">
          <mxGeometry width="50" height="50" relative="1" as="geometry">
            <mxPoint x="234.5" y="390" as="sourcePoint" />
            <mxPoint x="234" y="430" as="targetPoint" />
          </mxGeometry>
        </mxCell>
        <mxCell id="S1IWdxKnEXTp7zNw3UAF-16" value="" style="endArrow=classic;html=1;rounded=0;" edge="1" parent="1">
          <mxGeometry width="50" height="50" relative="1" as="geometry">
            <mxPoint x="326" y="390" as="sourcePoint" />
            <mxPoint x="325.5" y="430" as="targetPoint" />
          </mxGeometry>
        </mxCell>
        <mxCell id="S1IWdxKnEXTp7zNw3UAF-18" value="" style="endArrow=classic;html=1;rounded=0;" edge="1" parent="1">
          <mxGeometry width="50" height="50" relative="1" as="geometry">
            <mxPoint x="510.5" y="390" as="sourcePoint" />
            <mxPoint x="510" y="430" as="targetPoint" />
          </mxGeometry>
        </mxCell>
        <mxCell id="S1IWdxKnEXTp7zNw3UAF-19" value="" style="endArrow=classic;html=1;rounded=0;" edge="1" parent="1">
          <mxGeometry width="50" height="50" relative="1" as="geometry">
            <mxPoint x="601" y="390" as="sourcePoint" />
            <mxPoint x="600.5" y="430" as="targetPoint" />
          </mxGeometry>
        </mxCell>
        <mxCell id="S1IWdxKnEXTp7zNw3UAF-28" value="running" style="text;html=1;align=center;verticalAlign=middle;whiteSpace=wrap;rounded=0;" vertex="1" parent="1">
          <mxGeometry x="210.5" y="480" width="60" height="30" as="geometry" />
        </mxCell>
        <mxCell id="S1IWdxKnEXTp7zNw3UAF-29" value="running" style="text;html=1;align=center;verticalAlign=middle;whiteSpace=wrap;rounded=0;" vertex="1" parent="1">
          <mxGeometry x="296.5" y="480" width="60" height="30" as="geometry" />
        </mxCell>
        <mxCell id="S1IWdxKnEXTp7zNw3UAF-30" value="running" style="text;html=1;align=center;verticalAlign=middle;whiteSpace=wrap;rounded=0;" vertex="1" parent="1">
          <mxGeometry x="389" y="480" width="60" height="30" as="geometry" />
        </mxCell>
        <mxCell id="S1IWdxKnEXTp7zNw3UAF-31" value="running" style="text;html=1;align=center;verticalAlign=middle;whiteSpace=wrap;rounded=0;" vertex="1" parent="1">
          <mxGeometry x="481.5" y="480" width="60" height="30" as="geometry" />
        </mxCell>
        <mxCell id="S1IWdxKnEXTp7zNw3UAF-32" value="stopped" style="text;html=1;align=center;verticalAlign=middle;whiteSpace=wrap;rounded=0;" vertex="1" parent="1">
          <mxGeometry x="574" y="480" width="60" height="30" as="geometry" />
        </mxCell>
        <mxCell id="S1IWdxKnEXTp7zNw3UAF-37" value="executing" style="text;html=1;align=center;verticalAlign=middle;whiteSpace=wrap;rounded=0;" vertex="1" parent="1">
          <mxGeometry x="45" y="725" width="60" height="30" as="geometry" />
        </mxCell>
        <mxCell id="S1IWdxKnEXTp7zNw3UAF-38" value="idle" style="text;html=1;align=center;verticalAlign=middle;whiteSpace=wrap;rounded=0;" vertex="1" parent="1">
          <mxGeometry x="114" y="725" width="60" height="30" as="geometry" />
        </mxCell>
        <mxCell id="S1IWdxKnEXTp7zNw3UAF-39" value="idle" style="text;html=1;align=center;verticalAlign=middle;whiteSpace=wrap;rounded=0;" vertex="1" parent="1">
          <mxGeometry x="185.5" y="725" width="60" height="30" as="geometry" />
        </mxCell>
        <mxCell id="S1IWdxKnEXTp7zNw3UAF-40" value="idle" style="text;html=1;align=center;verticalAlign=middle;whiteSpace=wrap;rounded=0;" vertex="1" parent="1">
          <mxGeometry x="258" y="725" width="60" height="30" as="geometry" />
        </mxCell>
        <mxCell id="S1IWdxKnEXTp7zNw3UAF-49" value="stopped" style="text;html=1;align=center;verticalAlign=middle;whiteSpace=wrap;rounded=0;" vertex="1" parent="1">
          <mxGeometry x="329" y="725" width="60" height="30" as="geometry" />
        </mxCell>
        <mxCell id="S1IWdxKnEXTp7zNw3UAF-52" value="" style="sketch=0;points=[[0,0,0],[0.25,0,0],[0.5,0,0],[0.75,0,0],[1,0,0],[0,1,0],[0.25,1,0],[0.5,1,0],[0.75,1,0],[1,1,0],[0,0.25,0],[0,0.5,0],[0,0.75,0],[1,0.25,0],[1,0.5,0],[1,0.75,0]];outlineConnect=0;fontColor=#232F3E;fillColor=#ED7100;strokeColor=#ffffff;dashed=0;verticalLabelPosition=bottom;verticalAlign=top;align=center;html=1;fontSize=12;fontStyle=0;aspect=fixed;shape=mxgraph.aws4.resourceIcon;resIcon=mxgraph.aws4.ec2;" vertex="1" parent="1">
          <mxGeometry x="184.5" y="673" width="61" height="61" as="geometry" />
        </mxCell>
        <mxCell id="S1IWdxKnEXTp7zNw3UAF-53" value="" style="sketch=0;points=[[0,0,0],[0.25,0,0],[0.5,0,0],[0.75,0,0],[1,0,0],[0,1,0],[0.25,1,0],[0.5,1,0],[0.75,1,0],[1,1,0],[0,0.25,0],[0,0.5,0],[0,0.75,0],[1,0.25,0],[1,0.5,0],[1,0.75,0]];outlineConnect=0;fontColor=#232F3E;fillColor=#ED7100;strokeColor=#ffffff;dashed=0;verticalLabelPosition=bottom;verticalAlign=top;align=center;html=1;fontSize=12;fontStyle=0;aspect=fixed;shape=mxgraph.aws4.resourceIcon;resIcon=mxgraph.aws4.ec2;" vertex="1" parent="1">
          <mxGeometry x="384.5" y="430" width="61" height="61" as="geometry" />
        </mxCell>
        <mxCell id="S1IWdxKnEXTp7zNw3UAF-54" value="" style="sketch=0;points=[[0,0,0],[0.25,0,0],[0.5,0,0],[0.75,0,0],[1,0,0],[0,1,0],[0.25,1,0],[0.5,1,0],[0.75,1,0],[1,1,0],[0,0.25,0],[0,0.5,0],[0,0.75,0],[1,0.25,0],[1,0.5,0],[1,0.75,0]];outlineConnect=0;fontColor=#232F3E;fillColor=#ED7100;strokeColor=#ffffff;dashed=0;verticalLabelPosition=bottom;verticalAlign=top;align=center;html=1;fontSize=12;fontStyle=0;aspect=fixed;shape=mxgraph.aws4.resourceIcon;resIcon=mxgraph.aws4.ec2;" vertex="1" parent="1">
          <mxGeometry x="291.5" y="430" width="61" height="61" as="geometry" />
        </mxCell>
        <mxCell id="S1IWdxKnEXTp7zNw3UAF-55" value="" style="sketch=0;points=[[0,0,0],[0.25,0,0],[0.5,0,0],[0.75,0,0],[1,0,0],[0,1,0],[0.25,1,0],[0.5,1,0],[0.75,1,0],[1,1,0],[0,0.25,0],[0,0.5,0],[0,0.75,0],[1,0.25,0],[1,0.5,0],[1,0.75,0]];outlineConnect=0;fontColor=#232F3E;fillColor=#ED7100;strokeColor=#ffffff;dashed=0;verticalLabelPosition=bottom;verticalAlign=top;align=center;html=1;fontSize=12;fontStyle=0;aspect=fixed;shape=mxgraph.aws4.resourceIcon;resIcon=mxgraph.aws4.ec2;" vertex="1" parent="1">
          <mxGeometry x="480.5" y="430" width="61" height="61" as="geometry" />
        </mxCell>
        <mxCell id="S1IWdxKnEXTp7zNw3UAF-56" value="" style="sketch=0;points=[[0,0,0],[0.25,0,0],[0.5,0,0],[0.75,0,0],[1,0,0],[0,1,0],[0.25,1,0],[0.5,1,0],[0.75,1,0],[1,1,0],[0,0.25,0],[0,0.5,0],[0,0.75,0],[1,0.25,0],[1,0.5,0],[1,0.75,0]];outlineConnect=0;fontColor=#232F3E;fillColor=#ED7100;strokeColor=#ffffff;dashed=0;verticalLabelPosition=bottom;verticalAlign=top;align=center;html=1;fontSize=12;fontStyle=0;aspect=fixed;shape=mxgraph.aws4.resourceIcon;resIcon=mxgraph.aws4.ec2;" vertex="1" parent="1">
          <mxGeometry x="570.5" y="430" width="61" height="61" as="geometry" />
        </mxCell>
        <mxCell id="S1IWdxKnEXTp7zNw3UAF-57" value="" style="sketch=0;points=[[0,0,0],[0.25,0,0],[0.5,0,0],[0.75,0,0],[1,0,0],[0,1,0],[0.25,1,0],[0.5,1,0],[0.75,1,0],[1,1,0],[0,0.25,0],[0,0.5,0],[0,0.75,0],[1,0.25,0],[1,0.5,0],[1,0.75,0]];outlineConnect=0;fontColor=#232F3E;fillColor=#ED7100;strokeColor=#ffffff;dashed=0;verticalLabelPosition=bottom;verticalAlign=top;align=center;html=1;fontSize=12;fontStyle=0;aspect=fixed;shape=mxgraph.aws4.resourceIcon;resIcon=mxgraph.aws4.ec2;" vertex="1" parent="1">
          <mxGeometry x="257" y="673" width="61" height="61" as="geometry" />
        </mxCell>
        <mxCell id="S1IWdxKnEXTp7zNw3UAF-58" value="" style="sketch=0;points=[[0,0,0],[0.25,0,0],[0.5,0,0],[0.75,0,0],[1,0,0],[0,1,0],[0.25,1,0],[0.5,1,0],[0.75,1,0],[1,1,0],[0,0.25,0],[0,0.5,0],[0,0.75,0],[1,0.25,0],[1,0.5,0],[1,0.75,0]];outlineConnect=0;fontColor=#232F3E;fillColor=#ED7100;strokeColor=#ffffff;dashed=0;verticalLabelPosition=bottom;verticalAlign=top;align=center;html=1;fontSize=12;fontStyle=0;aspect=fixed;shape=mxgraph.aws4.resourceIcon;resIcon=mxgraph.aws4.ec2;" vertex="1" parent="1">
          <mxGeometry x="328" y="673" width="61" height="61" as="geometry" />
        </mxCell>
        <mxCell id="S1IWdxKnEXTp7zNw3UAF-59" value="" style="sketch=0;points=[[0,0,0],[0.25,0,0],[0.5,0,0],[0.75,0,0],[1,0,0],[0,1,0],[0.25,1,0],[0.5,1,0],[0.75,1,0],[1,1,0],[0,0.25,0],[0,0.5,0],[0,0.75,0],[1,0.25,0],[1,0.5,0],[1,0.75,0]];outlineConnect=0;fontColor=#232F3E;fillColor=#ED7100;strokeColor=#ffffff;dashed=0;verticalLabelPosition=bottom;verticalAlign=top;align=center;html=1;fontSize=12;fontStyle=0;aspect=fixed;shape=mxgraph.aws4.resourceIcon;resIcon=mxgraph.aws4.ec2;" vertex="1" parent="1">
          <mxGeometry x="114" y="673" width="61" height="61" as="geometry" />
        </mxCell>
        <mxCell id="S1IWdxKnEXTp7zNw3UAF-60" value="" style="sketch=0;points=[[0,0,0],[0.25,0,0],[0.5,0,0],[0.75,0,0],[1,0,0],[0,1,0],[0.25,1,0],[0.5,1,0],[0.75,1,0],[1,1,0],[0,0.25,0],[0,0.5,0],[0,0.75,0],[1,0.25,0],[1,0.5,0],[1,0.75,0]];outlineConnect=0;fontColor=#232F3E;fillColor=#ED7100;strokeColor=#ffffff;dashed=0;verticalLabelPosition=bottom;verticalAlign=top;align=center;html=1;fontSize=12;fontStyle=0;aspect=fixed;shape=mxgraph.aws4.resourceIcon;resIcon=mxgraph.aws4.ec2;" vertex="1" parent="1">
          <mxGeometry x="44" y="673" width="61" height="61" as="geometry" />
        </mxCell>
        <mxCell id="S1IWdxKnEXTp7zNw3UAF-61" value="executing" style="text;html=1;align=center;verticalAlign=middle;whiteSpace=wrap;rounded=0;" vertex="1" parent="1">
          <mxGeometry x="439" y="725" width="60" height="30" as="geometry" />
        </mxCell>
        <mxCell id="S1IWdxKnEXTp7zNw3UAF-62" value="executing" style="text;html=1;align=center;verticalAlign=middle;whiteSpace=wrap;rounded=0;" vertex="1" parent="1">
          <mxGeometry x="508" y="725" width="60" height="30" as="geometry" />
        </mxCell>
        <mxCell id="S1IWdxKnEXTp7zNw3UAF-63" value="executing" style="text;html=1;align=center;verticalAlign=middle;whiteSpace=wrap;rounded=0;" vertex="1" parent="1">
          <mxGeometry x="579.5" y="725" width="60" height="30" as="geometry" />
        </mxCell>
        <mxCell id="S1IWdxKnEXTp7zNw3UAF-64" value="idle" style="text;html=1;align=center;verticalAlign=middle;whiteSpace=wrap;rounded=0;" vertex="1" parent="1">
          <mxGeometry x="652" y="725" width="60" height="30" as="geometry" />
        </mxCell>
        <mxCell id="S1IWdxKnEXTp7zNw3UAF-65" value="stopped" style="text;html=1;align=center;verticalAlign=middle;whiteSpace=wrap;rounded=0;" vertex="1" parent="1">
          <mxGeometry x="723" y="725" width="60" height="30" as="geometry" />
        </mxCell>
        <mxCell id="S1IWdxKnEXTp7zNw3UAF-66" value="" style="sketch=0;points=[[0,0,0],[0.25,0,0],[0.5,0,0],[0.75,0,0],[1,0,0],[0,1,0],[0.25,1,0],[0.5,1,0],[0.75,1,0],[1,1,0],[0,0.25,0],[0,0.5,0],[0,0.75,0],[1,0.25,0],[1,0.5,0],[1,0.75,0]];outlineConnect=0;fontColor=#232F3E;fillColor=#ED7100;strokeColor=#ffffff;dashed=0;verticalLabelPosition=bottom;verticalAlign=top;align=center;html=1;fontSize=12;fontStyle=0;aspect=fixed;shape=mxgraph.aws4.resourceIcon;resIcon=mxgraph.aws4.ec2;" vertex="1" parent="1">
          <mxGeometry x="579.5" y="673" width="61" height="61" as="geometry" />
        </mxCell>
        <mxCell id="S1IWdxKnEXTp7zNw3UAF-67" value="" style="sketch=0;points=[[0,0,0],[0.25,0,0],[0.5,0,0],[0.75,0,0],[1,0,0],[0,1,0],[0.25,1,0],[0.5,1,0],[0.75,1,0],[1,1,0],[0,0.25,0],[0,0.5,0],[0,0.75,0],[1,0.25,0],[1,0.5,0],[1,0.75,0]];outlineConnect=0;fontColor=#232F3E;fillColor=#ED7100;strokeColor=#ffffff;dashed=0;verticalLabelPosition=bottom;verticalAlign=top;align=center;html=1;fontSize=12;fontStyle=0;aspect=fixed;shape=mxgraph.aws4.resourceIcon;resIcon=mxgraph.aws4.ec2;" vertex="1" parent="1">
          <mxGeometry x="651" y="673" width="61" height="61" as="geometry" />
        </mxCell>
        <mxCell id="S1IWdxKnEXTp7zNw3UAF-68" value="" style="sketch=0;points=[[0,0,0],[0.25,0,0],[0.5,0,0],[0.75,0,0],[1,0,0],[0,1,0],[0.25,1,0],[0.5,1,0],[0.75,1,0],[1,1,0],[0,0.25,0],[0,0.5,0],[0,0.75,0],[1,0.25,0],[1,0.5,0],[1,0.75,0]];outlineConnect=0;fontColor=#232F3E;fillColor=#ED7100;strokeColor=#ffffff;dashed=0;verticalLabelPosition=bottom;verticalAlign=top;align=center;html=1;fontSize=12;fontStyle=0;aspect=fixed;shape=mxgraph.aws4.resourceIcon;resIcon=mxgraph.aws4.ec2;" vertex="1" parent="1">
          <mxGeometry x="722" y="673" width="61" height="61" as="geometry" />
        </mxCell>
        <mxCell id="S1IWdxKnEXTp7zNw3UAF-69" value="" style="sketch=0;points=[[0,0,0],[0.25,0,0],[0.5,0,0],[0.75,0,0],[1,0,0],[0,1,0],[0.25,1,0],[0.5,1,0],[0.75,1,0],[1,1,0],[0,0.25,0],[0,0.5,0],[0,0.75,0],[1,0.25,0],[1,0.5,0],[1,0.75,0]];outlineConnect=0;fontColor=#232F3E;fillColor=#ED7100;strokeColor=#ffffff;dashed=0;verticalLabelPosition=bottom;verticalAlign=top;align=center;html=1;fontSize=12;fontStyle=0;aspect=fixed;shape=mxgraph.aws4.resourceIcon;resIcon=mxgraph.aws4.ec2;" vertex="1" parent="1">
          <mxGeometry x="509" y="673" width="61" height="61" as="geometry" />
        </mxCell>
        <mxCell id="S1IWdxKnEXTp7zNw3UAF-70" value="" style="sketch=0;points=[[0,0,0],[0.25,0,0],[0.5,0,0],[0.75,0,0],[1,0,0],[0,1,0],[0.25,1,0],[0.5,1,0],[0.75,1,0],[1,1,0],[0,0.25,0],[0,0.5,0],[0,0.75,0],[1,0.25,0],[1,0.5,0],[1,0.75,0]];outlineConnect=0;fontColor=#232F3E;fillColor=#ED7100;strokeColor=#ffffff;dashed=0;verticalLabelPosition=bottom;verticalAlign=top;align=center;html=1;fontSize=12;fontStyle=0;aspect=fixed;shape=mxgraph.aws4.resourceIcon;resIcon=mxgraph.aws4.ec2;" vertex="1" parent="1">
          <mxGeometry x="438" y="673" width="61" height="61" as="geometry" />
        </mxCell>
        <mxCell id="S1IWdxKnEXTp7zNw3UAF-74" value="" style="endArrow=none;html=1;rounded=0;" edge="1" parent="1" source="S1IWdxKnEXTp7zNw3UAF-87">
          <mxGeometry width="50" height="50" relative="1" as="geometry">
            <mxPoint x="75" y="633" as="sourcePoint" />
            <mxPoint x="358" y="633" as="targetPoint" />
          </mxGeometry>
        </mxCell>
        <mxCell id="S1IWdxKnEXTp7zNw3UAF-75" value="" style="endArrow=classic;html=1;rounded=0;" edge="1" parent="1">
          <mxGeometry width="50" height="50" relative="1" as="geometry">
            <mxPoint x="144" y="633" as="sourcePoint" />
            <mxPoint x="143.5" y="673" as="targetPoint" />
          </mxGeometry>
        </mxCell>
        <mxCell id="S1IWdxKnEXTp7zNw3UAF-76" value="" style="endArrow=classic;html=1;rounded=0;" edge="1" parent="1">
          <mxGeometry width="50" height="50" relative="1" as="geometry">
            <mxPoint x="215.5" y="633" as="sourcePoint" />
            <mxPoint x="215" y="673" as="targetPoint" />
          </mxGeometry>
        </mxCell>
        <mxCell id="S1IWdxKnEXTp7zNw3UAF-77" value="" style="endArrow=classic;html=1;rounded=0;" edge="1" parent="1">
          <mxGeometry width="50" height="50" relative="1" as="geometry">
            <mxPoint x="289" y="633" as="sourcePoint" />
            <mxPoint x="288.5" y="673" as="targetPoint" />
          </mxGeometry>
        </mxCell>
        <mxCell id="S1IWdxKnEXTp7zNw3UAF-78" value="" style="endArrow=classic;html=1;rounded=0;" edge="1" parent="1">
          <mxGeometry width="50" height="50" relative="1" as="geometry">
            <mxPoint x="359.5" y="633" as="sourcePoint" />
            <mxPoint x="359" y="673" as="targetPoint" />
          </mxGeometry>
        </mxCell>
        <mxCell id="S1IWdxKnEXTp7zNw3UAF-79" value="" style="endArrow=classic;html=1;rounded=0;" edge="1" parent="1">
          <mxGeometry width="50" height="50" relative="1" as="geometry">
            <mxPoint x="74.5" y="634" as="sourcePoint" />
            <mxPoint x="74" y="674" as="targetPoint" />
          </mxGeometry>
        </mxCell>
        <mxCell id="S1IWdxKnEXTp7zNw3UAF-86" value="" style="shape=singleArrow;direction=south;whiteSpace=wrap;html=1;" vertex="1" parent="1">
          <mxGeometry x="185.5" y="755" width="24.5" height="48" as="geometry" />
        </mxCell>
        <mxCell id="S1IWdxKnEXTp7zNw3UAF-90" value="If there are stopped dex agent, start 1." style="rounded=1;whiteSpace=wrap;html=1;fillColor=#f5f5f5;strokeColor=#666666;fontColor=#333333;" vertex="1" parent="1">
          <mxGeometry x="519.5" y="819" width="219.5" height="30" as="geometry" />
        </mxCell>
        <mxCell id="S1IWdxKnEXTp7zNw3UAF-91" value="Stop 1 idle dex agent" style="rounded=1;whiteSpace=wrap;html=1;fillColor=#f5f5f5;strokeColor=#666666;fontColor=#333333;" vertex="1" parent="1">
          <mxGeometry x="115" y="819" width="180" height="30" as="geometry" />
        </mxCell>
        <mxCell id="S1IWdxKnEXTp7zNw3UAF-92" value="" style="shape=singleArrow;direction=south;whiteSpace=wrap;html=1;" vertex="1" parent="1">
          <mxGeometry x="615" y="755" width="24.5" height="48" as="geometry" />
        </mxCell>
        <mxCell id="S1IWdxKnEXTp7zNw3UAF-93" value="EventBridge trigger Lambda to scan dex agent running state every 5 mins" style="rounded=0;whiteSpace=wrap;html=1;" vertex="1" parent="1">
          <mxGeometry x="361.5" y="120" width="120" height="60" as="geometry" />
        </mxCell>
        <mxCell id="S1IWdxKnEXTp7zNw3UAF-94" value="Lambda get lists of running and stopped instances" style="rounded=0;whiteSpace=wrap;html=1;" vertex="1" parent="1">
          <mxGeometry x="448" y="290" width="120" height="60" as="geometry" />
        </mxCell>
        <mxCell id="S1IWdxKnEXTp7zNw3UAF-96" value="" style="endArrow=none;html=1;rounded=0;" edge="1" parent="1" target="S1IWdxKnEXTp7zNw3UAF-87">
          <mxGeometry width="50" height="50" relative="1" as="geometry">
            <mxPoint x="75" y="633" as="sourcePoint" />
            <mxPoint x="358" y="633" as="targetPoint" />
          </mxGeometry>
        </mxCell>
        <mxCell id="S1IWdxKnEXTp7zNw3UAF-87" value="Scenario1: In running instances, if idle agent &amp;gt; 2" style="rounded=1;whiteSpace=wrap;html=1;fillColor=#ffe6cc;strokeColor=#d79b00;" vertex="1" parent="1">
          <mxGeometry x="125.5" y="603" width="180" height="30" as="geometry" />
        </mxCell>
        <mxCell id="S1IWdxKnEXTp7zNw3UAF-97" value="" style="endArrow=none;html=1;rounded=0;" edge="1" parent="1" source="S1IWdxKnEXTp7zNw3UAF-104">
          <mxGeometry width="50" height="50" relative="1" as="geometry">
            <mxPoint x="471" y="635" as="sourcePoint" />
            <mxPoint x="754" y="635" as="targetPoint" />
          </mxGeometry>
        </mxCell>
        <mxCell id="S1IWdxKnEXTp7zNw3UAF-98" value="" style="endArrow=classic;html=1;rounded=0;" edge="1" parent="1">
          <mxGeometry width="50" height="50" relative="1" as="geometry">
            <mxPoint x="540" y="635" as="sourcePoint" />
            <mxPoint x="539.5" y="675" as="targetPoint" />
          </mxGeometry>
        </mxCell>
        <mxCell id="S1IWdxKnEXTp7zNw3UAF-99" value="" style="endArrow=classic;html=1;rounded=0;" edge="1" parent="1">
          <mxGeometry width="50" height="50" relative="1" as="geometry">
            <mxPoint x="611.5" y="635" as="sourcePoint" />
            <mxPoint x="611" y="675" as="targetPoint" />
          </mxGeometry>
        </mxCell>
        <mxCell id="S1IWdxKnEXTp7zNw3UAF-100" value="" style="endArrow=classic;html=1;rounded=0;" edge="1" parent="1">
          <mxGeometry width="50" height="50" relative="1" as="geometry">
            <mxPoint x="685" y="635" as="sourcePoint" />
            <mxPoint x="684.5" y="675" as="targetPoint" />
          </mxGeometry>
        </mxCell>
        <mxCell id="S1IWdxKnEXTp7zNw3UAF-101" value="" style="endArrow=classic;html=1;rounded=0;" edge="1" parent="1">
          <mxGeometry width="50" height="50" relative="1" as="geometry">
            <mxPoint x="755.5" y="635" as="sourcePoint" />
            <mxPoint x="755" y="675" as="targetPoint" />
          </mxGeometry>
        </mxCell>
        <mxCell id="S1IWdxKnEXTp7zNw3UAF-102" value="" style="endArrow=classic;html=1;rounded=0;" edge="1" parent="1">
          <mxGeometry width="50" height="50" relative="1" as="geometry">
            <mxPoint x="470.5" y="636" as="sourcePoint" />
            <mxPoint x="470" y="676" as="targetPoint" />
          </mxGeometry>
        </mxCell>
        <mxCell id="S1IWdxKnEXTp7zNw3UAF-103" value="" style="endArrow=none;html=1;rounded=0;" edge="1" parent="1" target="S1IWdxKnEXTp7zNw3UAF-104">
          <mxGeometry width="50" height="50" relative="1" as="geometry">
            <mxPoint x="471" y="635" as="sourcePoint" />
            <mxPoint x="754" y="635" as="targetPoint" />
          </mxGeometry>
        </mxCell>
        <mxCell id="S1IWdxKnEXTp7zNw3UAF-104" value="Scenario2: In running instances, if idle agent &amp;lt; 2" style="rounded=1;whiteSpace=wrap;html=1;fillColor=#ffe6cc;strokeColor=#d79b00;" vertex="1" parent="1">
          <mxGeometry x="521.5" y="605" width="180" height="30" as="geometry" />
        </mxCell>
        <mxCell id="S1IWdxKnEXTp7zNw3UAF-113" value="" style="endArrow=classic;html=1;rounded=0;" edge="1" parent="1">
          <mxGeometry width="50" height="50" relative="1" as="geometry">
            <mxPoint x="240" y="530" as="sourcePoint" />
            <mxPoint x="240" y="500" as="targetPoint" />
          </mxGeometry>
        </mxCell>
        <mxCell id="S1IWdxKnEXTp7zNw3UAF-114" value="" style="endArrow=classic;html=1;rounded=0;" edge="1" parent="1">
          <mxGeometry width="50" height="50" relative="1" as="geometry">
            <mxPoint x="325.5" y="530" as="sourcePoint" />
            <mxPoint x="325.5" y="500" as="targetPoint" />
          </mxGeometry>
        </mxCell>
        <mxCell id="S1IWdxKnEXTp7zNw3UAF-115" value="" style="endArrow=classic;html=1;rounded=0;" edge="1" parent="1">
          <mxGeometry width="50" height="50" relative="1" as="geometry">
            <mxPoint x="418.5" y="530" as="sourcePoint" />
            <mxPoint x="418.5" y="500" as="targetPoint" />
          </mxGeometry>
        </mxCell>
        <mxCell id="S1IWdxKnEXTp7zNw3UAF-116" value="" style="endArrow=classic;html=1;rounded=0;" edge="1" parent="1">
          <mxGeometry width="50" height="50" relative="1" as="geometry">
            <mxPoint x="511" y="530" as="sourcePoint" />
            <mxPoint x="511" y="500" as="targetPoint" />
          </mxGeometry>
        </mxCell>
        <mxCell id="S1IWdxKnEXTp7zNw3UAF-117" value="" style="endArrow=none;html=1;rounded=0;" edge="1" parent="1" source="S1IWdxKnEXTp7zNw3UAF-120">
          <mxGeometry width="50" height="50" relative="1" as="geometry">
            <mxPoint x="240" y="530" as="sourcePoint" />
            <mxPoint x="510" y="530" as="targetPoint" />
          </mxGeometry>
        </mxCell>
        <mxCell id="S1IWdxKnEXTp7zNw3UAF-119" value="" style="endArrow=classic;html=1;rounded=0;" edge="1" parent="1">
          <mxGeometry width="50" height="50" relative="1" as="geometry">
            <mxPoint x="603.5" y="530" as="sourcePoint" />
            <mxPoint x="603.5" y="500" as="targetPoint" />
          </mxGeometry>
        </mxCell>
        <mxCell id="S1IWdxKnEXTp7zNw3UAF-121" value="" style="endArrow=none;html=1;rounded=0;" edge="1" parent="1" target="S1IWdxKnEXTp7zNw3UAF-120">
          <mxGeometry width="50" height="50" relative="1" as="geometry">
            <mxPoint x="240" y="530" as="sourcePoint" />
            <mxPoint x="510" y="530" as="targetPoint" />
          </mxGeometry>
        </mxCell>
        <mxCell id="S1IWdxKnEXTp7zNw3UAF-120" value="running instance list" style="rounded=1;whiteSpace=wrap;html=1;fillColor=#f5f5f5;strokeColor=#666666;fontColor=#333333;" vertex="1" parent="1">
          <mxGeometry x="299" y="520" width="150" height="30" as="geometry" />
        </mxCell>
        <mxCell id="S1IWdxKnEXTp7zNw3UAF-122" value="stopped instance list" style="rounded=1;whiteSpace=wrap;html=1;fillColor=#f5f5f5;strokeColor=#666666;fontColor=#333333;" vertex="1" parent="1">
          <mxGeometry x="541" y="520" width="126" height="30" as="geometry" />
        </mxCell>
        <mxCell id="S1IWdxKnEXTp7zNw3UAF-123" value="&lt;font style=&quot;font-size: 24px;&quot;&gt;Tosca Dex Agent Scale&amp;nbsp;Mechanism&lt;/font&gt;" style="text;html=1;align=center;verticalAlign=middle;whiteSpace=wrap;rounded=0;" vertex="1" parent="1">
          <mxGeometry x="50" y="100" width="340" height="90" as="geometry" />
        </mxCell>
      </root>
    </mxGraphModel>
  </diagram>
</mxfile>
